<svg width="557" height="128" viewBox="0 0 557 128" fill="none" xmlns="http://www.w3.org/2000/svg">
<path d="M52.6694 26.0288L117.756 91.0837V26.0288H100.143V46.5679L79.5934 26.0288L52.6694 26.0288Z" fill="url(#paint0_linear_330_5199)"/>
<path d="M78.9293 93.5145H106.185L38.6666 26.0288H11.4103L78.9293 93.5145Z" fill="#5B96E7"/>
<path d="M0 28.2881V93.5142H17.6136V72.9751L38.1627 93.5142H65.2585L0 28.2881Z" fill="url(#paint1_linear_330_5199)"/>
<path d="M203.845 34.33V94H189.31V58.215L175.965 94H164.235L150.805 58.13V94H136.27V34.33H153.44L170.185 75.64L186.76 34.33H203.845ZM251.442 83.46H229.172L225.602 94H210.387L231.977 34.33H248.807L270.397 94H255.012L251.442 83.46ZM247.702 72.24L240.307 50.395L232.997 72.24H247.702ZM311.563 94L291.503 67.65V94H276.968V34.33H291.503V60.51L311.393 34.33H328.478L305.358 63.57L329.328 94H311.563ZM379.161 34.33V45.975H363.351V94H348.816V45.975H333.006V34.33H379.161ZM423.601 83.46H401.331L397.761 94H382.546L404.136 34.33H420.966L442.556 94H427.171L423.601 83.46ZM419.861 72.24L412.466 50.395L405.156 72.24H419.861ZM485.251 63.4C488.708 64.1367 491.485 65.865 493.581 68.585C495.678 71.2483 496.726 74.3083 496.726 77.765C496.726 82.7517 494.97 86.7183 491.456 89.665C488 92.555 483.155 94 476.921 94H449.126V34.33H475.986C482.05 34.33 486.781 35.7183 490.181 38.495C493.638 41.2717 495.366 45.04 495.366 49.8C495.366 53.3133 494.431 56.2317 492.561 58.555C490.748 60.8783 488.311 62.4933 485.251 63.4ZM463.661 58.47H473.181C475.561 58.47 477.375 57.96 478.621 56.94C479.925 55.8633 480.576 54.305 480.576 52.265C480.576 50.225 479.925 48.6667 478.621 47.59C477.375 46.5133 475.561 45.975 473.181 45.975H463.661V58.47ZM474.371 82.27C476.808 82.27 478.678 81.7317 479.981 80.655C481.341 79.5217 482.021 77.9067 482.021 75.81C482.021 73.7133 481.313 72.07 479.896 70.88C478.536 69.69 476.638 69.095 474.201 69.095H463.661V82.27H474.371ZM556.327 34.33L535.672 74.28V94H521.137V74.28L500.482 34.33H516.972L528.532 59.32L540.007 34.33H556.327Z" fill="#0162E6"/>
<defs>
<linearGradient id="paint0_linear_330_5199" x1="85" y1="58.9999" x2="85" y2="90.9999" gradientUnits="userSpaceOnUse">
<stop stop-color="#0162E8"/>
<stop offset="1" stop-color="#0162E8" stop-opacity="0"/>
</linearGradient>
<linearGradient id="paint1_linear_330_5199" x1="31" y1="94" x2="24.5" y2="28" gradientUnits="userSpaceOnUse">
<stop stop-color="#0162E8"/>
<stop offset="1" stop-color="#0162E8" stop-opacity="0"/>
</linearGradient>
</defs>
</svg>
